HIERARCHY
ROOT Hips
{
  OFFSET 5.72205e-005 65.662 3.42586
  CHANNELS 6 Xposition Yposition Zposition Zrotation Xrotation Yrotation
  JOINT Chest
  {
    OFFSET 0 8.7983 -4.7612
    CHANNELS 3 Zrotation Xrotation Yrotation
    JOINT Chest2
    {
      OFFSET 0 8.0291 0.4195
      CHANNELS 3 Zrotation Xrotation Yrotation
      JOINT Chest3
      {
        OFFSET 0 9.9351 -2.2114
        CHANNELS 3 Zrotation Xrotation Yrotation
        JOINT Neck
        {
          OFFSET 0 22.3885 -0.4656
          CHANNELS 3 Zrotation Xrotation Yrotation
          JOINT Head
          {
            OFFSET -0.0001 12.643 3.4389
            CHANNELS 3 Zrotation Xrotation Yrotation
            End Site
            {
              OFFSET 0.0001 17.6655 0.5274
            }
          }
        }
        JOINT LeftCollar
        {
          OFFSET 2.2603 21.606 7.4023
          CHANNELS 3 Zrotation Xrotation Yrotation
          JOINT LeftShoulder
          {
            OFFSET 13.5163 -1.1332 -5.0146
            CHANNELS 3 Zrotation Xrotation Yrotation
            JOINT LeftElbow
            {
              OFFSET -0.0995 -28.05 -0.2431
              CHANNELS 3 Zrotation Xrotation Yrotation
              JOINT LeftWrist
              {
                OFFSET 0.0679 -23.3996 -0.1402
                CHANNELS 3 Zrotation Xrotation Yrotation
                JOINT LeftFinger1
                {
                  OFFSET 0.7932 -9.069 2.5189
                  CHANNELS 3 Zrotation Xrotation Yrotation
                  JOINT LeftFinger11
                  {
                    OFFSET -0.8272 -3.3923 0.5977
                    CHANNELS 3 Zrotation Xrotation Yrotation
                    JOINT LeftFinger12
                    {
                      OFFSET -0.5649 -2.3158 0.4082
                      CHANNELS 3 Zrotation Xrotation Yrotation
                      End Site
                      {
                        OFFSET -0.4919 -1.6479 0.2673
                      }
                    }
                  }
                }
                JOINT LeftFinger2
                {
                  OFFSET 0.9159 -9.2044 0.2193
                  CHANNELS 3 Zrotation Xrotation Yrotation
                  JOINT LeftFinger21
                  {
                    OFFSET 0.0117 -4.1944 -0.0248
                    CHANNELS 3 Zrotation Xrotation Yrotation
                    JOINT LeftFinger22
                    {
                      OFFSET 0.0071 -2.3249 -0.0142
                      CHANNELS 3 Zrotation Xrotation Yrotation
                      End Site
                      {
                        OFFSET -0.1475 -2.0882 0.0028
                      }
                    }
                  }
                }
                JOINT LeftFinger3
                {
                  OFFSET 0.6113 -8.7231 -2.0637
                  CHANNELS 3 Zrotation Xrotation Yrotation
                  JOINT LeftFinger31
                  {
                    OFFSET -0.1927 -3.8059 -0.2383
                    CHANNELS 3 Zrotation Xrotation Yrotation
                    JOINT LeftFinger32
                    {
                      OFFSET -0.1091 -2.1688 -0.1362
                      CHANNELS 3 Zrotation Xrotation Yrotation
                      End Site
                      {
                        OFFSET -0.2358 -1.9176 -0.0906
                      }
                    }
                  }
                }
                JOINT LeftFinger4
                {
                  OFFSET -0.6151 -8.0947 -3.5641
                  CHANNELS 3 Zrotation Xrotation Yrotation
                  JOINT LeftFinger41
                  {
                    OFFSET -0.4882 -2.341 -0.6462
                    CHANNELS 3 Zrotation Xrotation Yrotation
                    JOINT LeftFinger42
                    {
                      OFFSET -0.3575 -1.7167 -0.4742
                      CHANNELS 3 Zrotation Xrotation Yrotation
                      End Site
                      {
                        OFFSET -0.4187 -1.5237 -0.3496
                      }
                    }
                  }
                }
                JOINT LeftFinger0
                {
                  OFFSET -1.42 -1.8761 1.4223
                  CHANNELS 3 Zrotation Xrotation Yrotation
                  JOINT LeftFinger01
                  {
                    OFFSET -1.1471 -3.4929 2.6334
                    CHANNELS 3 Zrotation Xrotation Yrotation
                    JOINT LeftFinger02
                    {
                      OFFSET -0.823 -2.3 1.6571
                      CHANNELS 3 Zrotation Xrotation Yrotation
                      End Site
                      {
                        OFFSET -0.5822 -1.6914 1.1582
                      }
                    }
                  }
                }
              }
            }
          }
        }
        JOINT RightCollar
        {
          OFFSET -2.2603 21.606 7.4023
          CHANNELS 3 Zrotation Xrotation Yrotation
          JOINT RightShoulder
          {
            OFFSET -13.5187 -1.1334 -5.0155
            CHANNELS 3 Zrotation Xrotation Yrotation
            JOINT RightElbow
            {
              OFFSET 0.0994 -28.0499 -0.2431
              CHANNELS 3 Zrotation Xrotation Yrotation
              JOINT RightWrist
              {
                OFFSET -0.0679 -23.3996 -0.1402
                CHANNELS 3 Zrotation Xrotation Yrotation
                JOINT RightFinger1
                {
                  OFFSET -0.7932 -9.0691 2.5189
                  CHANNELS 3 Zrotation Xrotation Yrotation
                  JOINT RightFinger11
                  {
                    OFFSET 0.8272 -3.3923 0.5977
                    CHANNELS 3 Zrotation Xrotation Yrotation
                    JOINT RightFinger12
                    {
                      OFFSET 0.565 -2.3158 0.4082
                      CHANNELS 3 Zrotation Xrotation Yrotation
                      End Site
                      {
                        OFFSET 0.4919 -1.6479 0.2673
                      }
                    }
                  }
                }
                JOINT RightFinger2
                {
                  OFFSET -0.916 -9.2044 0.2193
                  CHANNELS 3 Zrotation Xrotation Yrotation
                  JOINT RightFinger21
                  {
                    OFFSET -0.0117 -4.1944 -0.0248
                    CHANNELS 3 Zrotation Xrotation Yrotation
                    JOINT RightFinger22
                    {
                      OFFSET -0.0071 -2.3249 -0.0142
                      CHANNELS 3 Zrotation Xrotation Yrotation
                      End Site
                      {
                        OFFSET 0.1475 -2.0882 0.0028
                      }
                    }
                  }
                }
                JOINT RightFinger3
                {
                  OFFSET -0.6113 -8.7231 -2.0637
                  CHANNELS 3 Zrotation Xrotation Yrotation
                  JOINT RightFinger31
                  {
                    OFFSET 0.1927 -3.8059 -0.2383
                    CHANNELS 3 Zrotation Xrotation Yrotation
                    JOINT RightFinger32
                    {
                      OFFSET 0.1091 -2.1688 -0.1362
                      CHANNELS 3 Zrotation Xrotation Yrotation
                      End Site
                      {
                        OFFSET 0.2358 -1.9176 -0.0906
                      }
                    }
                  }
                }
                JOINT RightFinger4
                {
                  OFFSET 0.6151 -8.0947 -3.564
                  CHANNELS 3 Zrotation Xrotation Yrotation
                  JOINT RightFinger41
                  {
                    OFFSET 0.4882 -2.341 -0.6462
                    CHANNELS 3 Zrotation Xrotation Yrotation
                    JOINT RightFinger42
                    {
                      OFFSET 0.3574 -1.7166 -0.4742
                      CHANNELS 3 Zrotation Xrotation Yrotation
                      End Site
                      {
                        OFFSET 0.4187 -1.5237 -0.3496
                      }
                    }
                  }
                }
                JOINT RightFinger0
                {
                  OFFSET 1.4199 -1.8761 1.4221
                  CHANNELS 3 Zrotation Xrotation Yrotation
                  JOINT RightFinger01
                  {
                    OFFSET 1.1472 -3.4929 2.6336
                    CHANNELS 3 Zrotation Xrotation Yrotation
                    JOINT RightFinger02
                    {
                      OFFSET 0.8229 -2.3 1.6571
                      CHANNELS 3 Zrotation Xrotation Yrotation
                      End Site
                      {
                        OFFSET 0.5822 -1.6914 1.1582
                      }
                    }
                  }
                }
              }
            }
          }
        }
      }
    }
  }
  JOINT RightHip
  {
    OFFSET -9.412 3.9771 -0.7758
    CHANNELS 3 Zrotation Xrotation Yrotation
    JOINT RightKnee
    {
      OFFSET -0.7531 -40.938 0
      CHANNELS 3 Zrotation Xrotation Yrotation
      JOINT RightAnkle
      {
        OFFSET 0 -40.1986 0
        CHANNELS 3 Zrotation Xrotation Yrotation
        JOINT RightToe
        {
          OFFSET 0 -4.4182 9.239
          CHANNELS 3 Zrotation Xrotation Yrotation
          End Site
          {
            OFFSET 0 0 6.1981
          }
        }
      }
    }
  }
  JOINT LeftHip
  {
    OFFSET 9.4119 3.9773 -0.7758
    CHANNELS 3 Zrotation Xrotation Yrotation
    JOINT LeftKnee
    {
      OFFSET 0.7532 -40.9383 0
      CHANNELS 3 Zrotation Xrotation Yrotation
      JOINT LeftAnkle
      {
        OFFSET 0 -40.1986 0
        CHANNELS 3 Zrotation Xrotation Yrotation
        JOINT LeftToe
        {
          OFFSET 0 -4.4182 9.239
          CHANNELS 3 Zrotation Xrotation Yrotation
          End Site
          {
            OFFSET 0 0 6.1981
          }
        }
      }
    }
  }
}
MOTION
Frames:	4
Frame Time:	0.0333333
-61.9759 5.11411 2.23636 -90 5.33609e-007 3.50023 0.0553052 -1.85892 -0.250221 0.102518 -3.71807 -0.49904 0.102526 -3.71807 -0.49904 1.24357e-005 18.3858 -5.05698e-006 -5.99998e-006 -46.4296 -9.5081e-006 -17.054 1.39307 15.2643 85.57 -65.8006 6.13846 -42.8767 -63.8341 -14.4458 -12.342 -5.12279 49.0291 -0 -1.98785e-016 -0 3.18055e-015 0 -1.98785e-016 3.18055e-015 -1.98785e-016 -1.98785e-016 -0 -1.98785e-016 -0 -0.0127815 0.00231107 8.2271e-005 0 0 -1.98785e-016 -0 -1.98785e-016 -0 -0.0160235 0.00296432 0.000858525 -9.65298e-006 9.2788e-006 1.59438e-007 -0 -1.98785e-016 -0 -0.0126345 0.00311565 0.00283995 7.22054e-006 1.10177e-005 3.33748e-006 -0 -1.98785e-016 -0 3.18055e-015 0 -1.98785e-016 3.18055e-015 -1.98785e-016 -1.98785e-016 15.3394 -1.04427 -25.0739 -87.5167 -67.883 -8.48278 31.5834 -57.5828 3.83627 23.9889 -15.7325 -45.613 -6.36111e-015 -2.48481e-016 -0 -3.18055e-015 -3.47873e-016 9.93923e-017 -6.36111e-015 -1.98785e-016 -9.93923e-017 -6.36111e-015 -2.48481e-016 -0 0.0129842 0.00232464 -8.47091e-005 3.18055e-015 -2.48481e-016 1.98785e-016 -6.36111e-015 -2.48481e-016 -0 0.0163744 0.00304783 -0.000872224 -3.18055e-015 -4.96962e-017 -9.93923e-017 -6.36111e-015 -2.48481e-016 -0 0.0145224 0.00366543 -0.00324747 -1.41004e-030 -9.34288e-015 -8.64713e-015 -6.36111e-015 -2.48481e-016 -0 -3.18055e-015 -3.47873e-016 9.93923e-017 -6.36111e-015 -1.98785e-016 -9.93923e-017 -99.6729 -19.3272 -70.8833 90.51 9.30829 -87.6733 -18.6967 34.395 44.0057 2.50089e-007 -5.65468e-008 8.16186e-007 -6.09448 -87.1896 -16.167 -47.891 82.6289 61.2243 18.3994 16.4598 -25.2216 -8.34542e-007 1.2989e-007 2.39529e-006 
-61.7151 5.29177 1.76311 -90 -2.13443e-006 3.50023 0.0545301 -1.70999 -0.25066 0.1016 -3.42019 -0.50003 0.101622 -3.42019 -0.500031 -1.9033e-006 20.1579 2.85143e-005 -5.39017e-006 -48.2493 -9.1572e-006 -16.9938 1.17517 14.2112 85.5335 -65.4559 6.09448 -40.0818 -62.5799 -11.8793 -12.631 -6.358 48.566 6.36111e-015 0 1.98785e-016 9.54166e-015 0 -0 9.54166e-015 0 -0 6.36111e-015 0 1.98785e-016 -0.01282 0.00231867 9.38979e-005 1.59028e-014 1.2921e-014 -0 6.36111e-015 0 1.98785e-016 -0.0160399 0.00297109 0.000861414 3.18055e-015 1.33186e-014 -0 6.36111e-015 0 1.98785e-016 -0.0125771 0.00310966 0.00283601 2.22639e-014 7.95139e-016 -0 6.36111e-015 0 1.98785e-016 9.54166e-015 0 -0 9.54166e-015 0 -0 15.344 -1.13116 -23.803 -87.4087 -67.6438 -8.37064 30.1583 -56.4623 2.59071 23.824 -16.365 -45.1977 -2.3488e-006 -1.7357e-006 -1.67053e-006 -9.54166e-015 -9.93923e-017 -1.98785e-016 -1.27222e-014 -4.96962e-017 -1.49089e-016 -2.3488e-006 -1.7357e-006 -1.67053e-006 0.012919 0.00231101 -7.74651e-005 -6.36111e-015 0 4.96962e-017 -2.3488e-006 -1.7357e-006 -1.67053e-006 0.0163066 0.0030332 -0.000865923 -2.34549e-006 -3.4638e-006 -3.37801e-006 -2.3488e-006 -1.7357e-006 -1.67053e-006 0.0145335 0.00366803 -0.00325681 -7.3029e-006 6.06084e-007 -1.75398e-006 -2.3488e-006 -1.7357e-006 -1.67053e-006 -9.54166e-015 -9.93923e-017 -1.98785e-016 -1.27222e-014 -4.96962e-017 -1.49089e-016 -99.3158 -20.0337 -70.7714 90.5739 9.30916 -87.8412 -18.7913 34.3103 44.1706 1.16125e-005 4.48783e-006 -3.67906e-006 -4.0415 -86.722 -14.2612 -43.8856 81.4135 57.3573 18.6223 17.154 -25.6111 1.19271e-015 0 3.18055e-015 
-61.4822 5.45052 1.34028 -90 6.4033e-007 3.50023 0.053831 -1.57677 -0.251032 0.100803 -3.15377 -0.50087 0.100788 -3.15377 -0.50087 2.02111e-005 21.7469 -1.40576e-005 5.82786e-006 -49.8818 1.08586e-005 -16.9429 0.979219 13.2693 85.5025 -65.148 6.05677 -37.7904 -61.405 -9.79379 -12.8995 -7.46178 48.1449 -9.54166e-015 0 -0 -2.27353e-006 -7.88126e-006 3.41775e-006 -1.27222e-014 0 1.98785e-016 -9.54166e-015 0 -0 -0.0128424 0.00232765 7.48709e-005 7.16217e-006 1.92655e-007 -8.80767e-008 -9.54166e-015 0 -0 -0.0160785 0.00299061 0.000860817 -3.09226e-007 9.43885e-006 1.54865e-007 -9.54166e-015 0 -0 -0.0125765 0.00311876 0.00282672 0 1.98785e-016 -0 -9.54166e-015 0 -0 -2.27353e-006 -7.88126e-006 3.41775e-006 -1.27222e-014 0 1.98785e-016 15.3497 -1.20921 -22.6653 -87.3126 -67.4289 -8.27095 28.9577 -55.4456 1.55274 23.6803 -16.9311 -44.827 -1.27222e-014 1.98785e-016 -2.98177e-016 -6.36111e-015 2.48481e-016 -1.98785e-016 -3.18055e-015 1.98785e-016 -5.46658e-016 -1.27222e-014 1.98785e-016 -2.98177e-016 0.0129624 0.00231377 -8.08001e-005 -3.18055e-015 9.93923e-017 1.49089e-016 -1.27222e-014 1.98785e-016 -2.98177e-016 0.0163598 0.00302909 -0.000856952 -6.36111e-015 -1.98785e-016 -1.49089e-016 -1.27222e-014 1.98785e-016 -2.98177e-016 0.0146151 0.00369365 -0.00326547 1.26718e-007 1.44175e-007 7.65438e-008 -1.27222e-014 1.98785e-016 -2.98177e-016 -6.36111e-015 2.48481e-016 -1.98785e-016 -3.18055e-015 1.98785e-016 -5.46658e-016 -98.9779 -20.6643 -70.6627 90.6316 9.30977 -87.993 -18.8767 34.233 44.3189 1.07659e-005 1.53419e-006 -3.18191e-006 -2.58525 -86.2264 -12.9358 -40.8574 80.2441 54.4632 18.8276 17.7709 -25.9632 2.77836e-007 -1.73299e-007 -7.98407e-007 
-61.2492 5.6094 0.917392 -90 -3.20165e-007 3.50023 0.0531289 -1.4436 -0.251418 0.0999892 -2.88743 -0.501734 0.0999712 -2.88741 -0.50173 -1.87902e-005 23.3416 4.57491e-005 1.32868e-005 -51.5199 6.9946e-007 -16.8953 0.782738 12.3267 85.4718 -64.8398 6.01943 -35.6625 -60.1898 -7.87384 -13.1776 -8.56563 47.7166 -3.18055e-015 -1.98785e-016 1.98785e-016 -3.18055e-015 -1.98785e-016 -0 -3.18055e-015 -1.98785e-016 1.98785e-016 -3.18055e-015 -1.98785e-016 1.98785e-016 -0.0127869 0.00233524 8.15555e-005 2.77115e-006 -1.59047e-005 6.67385e-006 -3.18055e-015 -1.98785e-016 1.98785e-016 -0.0160787 0.00300305 0.000852533 -6.36111e-015 3.97569e-016 -0 -3.18055e-015 -1.98785e-016 1.98785e-016 -0.0125397 0.00309997 0.0028166 -3.18055e-015 8.15017e-015 -9.74045e-015 -3.18055e-015 -1.98785e-016 1.98785e-016 -3.18055e-015 -1.98785e-016 -0 -3.18055e-015 -1.98785e-016 1.98785e-016 15.3569 -1.28671 -21.5258 -87.2192 -67.2146 -8.17397 27.8171 -54.415 0.575581 23.5396 -17.4983 -44.4567 -3.18055e-015 -1.49089e-016 2.48481e-016 8.62091e-034 -1.98785e-016 2.48481e-016 7.75882e-034 -1.49089e-016 2.98177e-016 -3.18055e-015 -1.49089e-016 2.48481e-016 0.01296 0.00231657 -8.39066e-005 -7.30154e-006 1.33234e-006 -3.45727e-006 -3.18055e-015 -1.49089e-016 2.48481e-016 0.0162602 0.00303253 -0.000880659 9.54166e-015 -9.0447e-015 -8.49804e-015 -3.18055e-015 -1.49089e-016 2.48481e-016 0.0145638 0.00367011 -0.00325951 -1.43512e-030 -9.24349e-015 -8.89561e-015 -3.18055e-015 -1.49089e-016 2.48481e-016 8.62091e-034 -1.98785e-016 2.48481e-016 7.75882e-034 -1.49089e-016 2.98177e-016 -98.6367 -21.295 -70.5494 90.6896 9.31064 -88.1455 -18.9616 34.1545 44.4672 -1.12132e-007 3.18055e-015 -4.11614e-007 -1.41605 -85.8733 -11.9006 -38.9763 79.1604 52.6939 19.0387 18.3844 -26.3195 2.77596e-007 -1.44333e-006 -7.98412e-007 
